<?xml version="1.0" encoding="UTF-8"?>
<svg width="20px" height="61px" viewBox="0 0 20 61" version="1.1" xmlns="http://www.w3.org/2000/svg" xmlns:xlink="http://www.w3.org/1999/xlink">
    <!-- Generator: Sketch 53.2 (72643) - https://sketchapp.com -->
    <title>Arrow 6</title>
    <desc>Created with Sketch.</desc>
    <g id="Page-1" stroke="none" stroke-width="1" fill="none" fill-rule="evenodd">
        <g id="Books-Found" transform="translate(-185.000000, -247.000000)" fill="#282D2F" fill-rule="nonzero">
            <g id="Arrow-6" transform="translate(185.000000, 247.000000)">
                <path d="M11.7921163,26.8673287 C11.8660163,27.6544287 11.9961163,28.4456287 12.0142163,29.2355287 C12.0781163,32.2272287 12.1072163,35.2207287 12.1572163,38.2131287 C12.1578163,38.3670287 12.2492163,38.5165287 12.3057163,38.6676287 L12.3120163,38.6533287 C12.3385163,40.4643287 12.3299163,42.2701287 12.3983163,44.0791287 C12.5562163,48.2628287 12.6653163,52.4488287 12.2703163,56.6318287 C12.2117163,57.2855287 12.2317163,58.3971287 10.6510163,58.4123287 C9.0075263,58.4306287 8.0275463,57.7163287 8.0550463,56.5744287 C8.1284563,53.8137287 8.4391963,51.0414287 8.0801663,48.3092287 C7.5536063,44.3117287 7.6772563,40.3030287 7.4794663,36.3033287 C7.3086763,32.7080287 7.2987763,29.1118287 7.1070463,25.5175287 C6.9333363,22.1464287 6.4867063,18.7747287 6.4107263,15.3986287 C6.3435663,12.4840287 6.6749863,9.56372867 6.7474263,6.64219867 C6.7624663,5.95570867 6.8312763,5.22458867 6.2121263,4.59044867 L6.1918763,4.60545867 C6.8934863,3.79403867 5.5199163,2.90328867 6.5652863,2.10985867 C6.5870763,1.84287867 6.6852963,1.56509867 6.6233163,1.30226867 C6.3196263,0.113717666 6.8838163,-0.222083334 8.6998663,0.135948666 C9.1025763,0.213998666 9.6146163,0.0977466656 9.8944163,0.377808666 L9.8675163,0.400148666 L9.8951163,0.391778666 C11.1371163,1.17005867 10.5785163,2.18425867 10.6304163,3.09136867 C10.8712163,7.53683867 11.0073163,11.9875287 11.1787163,16.4434287 C11.2857163,19.1741287 11.2881163,21.9101287 11.5766163,24.6318287 C11.6554163,25.3766287 11.9091163,26.1198287 11.7928163,26.8813287 L11.7921163,26.8673287 Z" id="Path"></path>
                <path d="M13.0841163,59.6571287 C12.6363163,60.2251287 12.1544163,60.6687287 11.4923163,60.8624287 L11.0909163,60.9523287 C10.4451163,61.0542287 9.7901163,60.9676287 9.2545163,60.7492287 C8.7049163,60.5315287 8.2049663,60.1853287 7.7180263,59.6776287 C7.2241063,59.1702287 6.8182463,58.4625287 6.3879163,57.8261287 L5.5551763,56.5517287 C5.5098463,56.4840287 5.3898063,56.4620287 5.3036263,56.4172287 L5.2973263,56.4316287 C4.7515963,55.5839287 4.2397163,54.7135287 3.6601163,53.8885287 C2.3202663,51.9814287 1.0209163,50.0444287 0.141918302,47.8347287 C0.00599230206,47.4915287 -0.334705698,46.9695287 0.986776302,46.0995287 C2.3623763,45.1918287 3.3885763,45.0011287 3.6891163,45.5600287 C4.4209463,46.9163287 4.9635263,48.4079287 6.0539263,49.5156287 C6.8495763,50.3229287 7.5167463,51.2206287 8.1434163,52.1483287 L9.0727663,53.5368287 L9.5407163,54.2274287 L9.7817163,54.5723287 L9.8420163,54.6603287 C9.8644163,54.6872287 9.8567163,54.6736287 9.8644163,54.6872287 L9.8937163,54.7138287 C9.9746163,54.7938287 10.0416163,54.8744287 10.1019163,54.9624287 C10.1619163,55.0434287 10.2575163,55.1366287 10.3747163,55.1028287 C10.5189163,55.0467287 10.5518163,54.8631287 10.5941163,54.7281287 C10.6060163,54.6855287 10.6109163,54.6433287 10.6089163,54.6015287 C10.6078163,54.5805287 10.6071163,54.5665287 10.6124163,54.5313287 L10.7431163,54.2029287 L11.2513163,52.8763287 C11.5854163,51.9921287 11.9339163,51.1142287 12.3685163,50.2810287 C13.1158163,48.8375287 14.2148163,47.5726287 15.0773163,46.1934287 C15.2782163,45.8686287 15.5418163,45.5407287 15.1698163,44.9503287 L15.1485163,44.9443287 C15.9917163,44.8746287 15.0224163,43.8100287 16.1678163,43.9073287 C16.2600163,43.7908287 16.4234163,43.6988287 16.4368163,43.5442287 C16.4993163,42.8273287 17.0852163,42.9313287 18.5976163,43.9411287 C18.9304163,44.1626287 19.4224163,44.3482287 19.5895163,44.6128287 C20.4765163,45.5696287 19.7043163,45.8037287 19.4961163,46.2618287 C18.4886163,48.5298287 17.3807163,50.7468287 16.3091163,52.9901287 L15.2976163,55.0343287 C15.1327163,55.3784287 14.9677163,55.7224287 14.8241163,56.0723287 L14.1657163,57.6164287 C13.8791163,58.3303287 13.6472163,59.3004287 13.0910163,59.6568287 L13.0841163,59.6571287 Z" id="Path"></path>
            </g>
        </g>
    </g>
</svg>