<?xml version="1.0" encoding="UTF-8"?>
<svg width="331px" height="10px" viewBox="0 0 331 10" version="1.1" xmlns="http://www.w3.org/2000/svg" xmlns:xlink="http://www.w3.org/1999/xlink">
    <!-- Generator: Sketch 53.2 (72643) - https://sketchapp.com -->
    <title>Line 5</title>
    <desc>Created with Sketch.</desc>
    <g id="Page-1" stroke="none" stroke-width="1" fill="none" fill-rule="evenodd">
        <g id="Welcome-Screen" transform="translate(-30.000000, -296.000000)" fill="#000000" fill-rule="nonzero">
            <g id="Line-5" transform="translate(30.000000, 296.000000)">
                <path d="M219.414,1.21018 C223.906,1.17467 239.813,1.1242 250.01,1.00082 C273.606,0.712955 297.208,0.49051 320.751,0.939138 C324.43,1.01017 330.685,0.9597 330.581,3.07572 C330.471,5.27774 326.296,6.59932 319.879,6.57875 C304.347,6.52642 288.734,6.16751 273.287,6.69839 C250.689,7.47414 228.119,7.38815 205.541,7.71715 C185.266,8.01249 164.983,8.09287 144.711,8.40878 C125.667,8.70413 106.635,9.36585 87.5969,9.52661 C71.1649,9.66494 54.7367,9.27612 38.2974,9.23687 C34.4277,9.22752 29.7738,9.66307 25.5313,9.67054 C22.0234,9.67615 16.1739,9.71541 12.6973,9.56586 C11.1968,9.50044 9.63751,9.41445 8.17008,9.50792 C1.4243,9.92663 -0.366368,9.17892 1.86876,6.74138 C2.36096,6.2049 1.7806,5.51513 3.40965,5.13567 C3.4776,5.12072 3.61168,5.08894 3.67228,5.06838 C8.60719,3.55613 13.6909,4.18795 18.8057,4.10383 C43.9063,3.69819 69.0143,3.43836 94.1186,3.12619 C109.522,2.93366 124.946,2.87945 140.318,2.44765 C144.527,2.32988 148.735,1.97472 153.011,2.11865 L152.937,2.11865 C157.394,2.00276 161.854,1.8177 166.311,1.78031 C183.178,1.64012 200.791,1.28495 216.979,1.32234 C217.616,1.32234 218.476,1.21766 219.414,1.21018 Z" id="Path"></path>
            </g>
        </g>
    </g>
</svg>