<?xml version="1.0" encoding="UTF-8"?>
<svg width="35px" height="25px" viewBox="0 0 35 25" version="1.1" xmlns="http://www.w3.org/2000/svg" xmlns:xlink="http://www.w3.org/1999/xlink">
    <!-- Generator: Sketch 53.2 (72643) - https://sketchapp.com -->
    <title>Shape Copy 3</title>
    <desc>Created with Sketch.</desc>
    <g id="Page-1" stroke="none" stroke-width="1" fill="none" fill-rule="evenodd">
        <g id="Main-Screen" transform="translate(-59.000000, -735.000000)" fill="#282D2F" fill-rule="nonzero">
            <path d="M67.75,754.386107 C68.9962121,754.386107 70.2092803,754.527464 71.3892045,754.810178 C72.5691288,755.092892 73.7424242,755.516963 74.9090909,756.082391 L74.9090909,740.169628 C73.8219697,739.523425 72.6685606,739.038772 71.4488636,738.71567 C70.2291667,738.392569 68.9962121,738.231018 67.75,738.231018 C66.7954545,738.231018 65.8475379,738.325256 64.90625,738.513732 C63.9649621,738.702208 63.0568182,738.984922 62.1818182,739.361874 L62.1818182,755.355412 C63.1098485,755.03231 64.03125,754.789984 64.9460227,754.628433 C65.8607955,754.466882 66.7954545,754.386107 67.75,754.386107 Z M78.0909091,756.082391 C79.2575758,755.516963 80.4308712,755.092892 81.6107955,754.810178 C82.7907197,754.527464 84.0037879,754.386107 85.25,754.386107 C86.2045455,754.386107 87.1392045,754.466882 88.0539773,754.628433 C88.96875,754.789984 89.8901515,755.03231 90.8181818,755.355412 L90.8181818,739.361874 C89.9431818,738.984922 89.0350379,738.702208 88.09375,738.513732 C87.1524621,738.325256 86.2045455,738.231018 85.25,738.231018 C84.0037879,738.231018 82.7708333,738.392569 81.5511364,738.71567 C80.3314394,739.038772 79.1780303,739.523425 78.0909091,740.169628 L78.0909091,756.082391 Z M76.5,760 C76.1287879,760 75.7774621,759.952881 75.4460227,759.858643 C75.1145833,759.764405 74.8030303,759.636511 74.5113636,759.47496 C73.4772727,758.855681 72.3901515,758.391222 71.25,758.081583 C70.1098485,757.771944 68.9431818,757.617124 67.75,757.617124 C66.6363636,757.617124 65.5426136,757.765213 64.46875,758.061389 C63.3948864,758.357566 62.3674242,758.774906 61.3863636,759.313409 C60.8295455,759.609585 60.2926136,759.596123 59.7755682,759.273021 C59.2585227,758.949919 59,758.478729 59,757.859451 L59,738.392569 C59,738.096392 59.0729167,737.813678 59.21875,737.544426 C59.3645833,737.275175 59.5833333,737.073236 59.875,736.938611 C61.094697,736.292407 62.3674242,735.807754 63.6931818,735.484653 C65.0189394,735.161551 66.3712121,735 67.75,735 C69.2878788,735 70.7926136,735.201939 72.2642045,735.605816 C73.7357955,736.009693 75.1477273,736.615509 76.5,737.423263 C77.8522727,736.615509 79.2642045,736.009693 80.7357955,735.605816 C82.2073864,735.201939 83.7121212,735 85.25,735 C86.6287879,735 87.9810606,735.161551 89.3068182,735.484653 C90.6325758,735.807754 91.905303,736.292407 93.125,736.938611 C93.4166667,737.073236 93.6354167,737.275175 93.78125,737.544426 C93.9270833,737.813678 94,738.096392 94,738.392569 L94,757.859451 C94,758.478729 93.7414773,758.949919 93.2244318,759.273021 C92.7073864,759.596123 92.1704545,759.609585 91.6136364,759.313409 C90.6325758,758.774906 89.6051136,758.357566 88.53125,758.061389 C87.4573864,757.765213 86.3636364,757.617124 85.25,757.617124 C84.0568182,757.617124 82.8901515,757.771944 81.75,758.081583 C80.6098485,758.391222 79.5227273,758.855681 78.4886364,759.47496 C78.1969697,759.636511 77.8854167,759.764405 77.5539773,759.858643 C77.2225379,759.952881 76.8712121,760 76.5,760 Z M79.6818182,742.714055 C79.6818182,742.471729 79.7679924,742.222671 79.9403409,741.966882 C80.1126894,741.711093 80.3049242,741.542811 80.5170455,741.462036 C81.2859848,741.192784 82.0549242,740.990845 82.8238636,740.85622 C83.592803,740.721594 84.4015152,740.654281 85.25,740.654281 C85.780303,740.654281 86.3039773,740.687938 86.8210227,740.75525 C87.3380682,740.822563 87.8484848,740.91007 88.3522727,741.017771 C88.5909091,741.071621 88.7964015,741.206247 88.96875,741.421648 C89.1410985,741.637049 89.2272727,741.879375 89.2272727,742.148627 C89.2272727,742.606354 89.0814394,742.942919 88.7897727,743.15832 C88.4981061,743.373721 88.1268939,743.427571 87.6761364,743.319871 C87.3049242,743.239095 86.9138258,743.178514 86.5028409,743.138126 C86.0918561,743.097738 85.6742424,743.077544 85.25,743.077544 C84.5606061,743.077544 83.8844697,743.144857 83.2215909,743.279483 C82.5587121,743.414109 81.9223485,743.589122 81.3125,743.804523 C80.8352273,743.992999 80.4441288,743.979537 80.1392045,743.764136 C79.8342803,743.548735 79.6818182,743.198708 79.6818182,742.714055 Z M79.6818182,751.599354 C79.6818182,751.357027 79.7679924,751.10797 79.9403409,750.852181 C80.1126894,750.596392 80.3049242,750.42811 80.5170455,750.347334 C81.2859848,750.078083 82.0549242,749.876144 82.8238636,749.741519 C83.592803,749.606893 84.4015152,749.53958 85.25,749.53958 C85.780303,749.53958 86.3039773,749.573236 86.8210227,749.640549 C87.3380682,749.707862 87.8484848,749.795369 88.3522727,749.903069 C88.5909091,749.95692 88.7964015,750.091546 88.96875,750.306947 C89.1410985,750.522348 89.2272727,750.764674 89.2272727,751.033926 C89.2272727,751.491653 89.0814394,751.828218 88.7897727,752.043619 C88.4981061,752.25902 88.1268939,752.31287 87.6761364,752.20517 C87.3049242,752.124394 86.9138258,752.063813 86.5028409,752.023425 C86.0918561,751.983037 85.6742424,751.962843 85.25,751.962843 C84.5606061,751.962843 83.8844697,752.023425 83.2215909,752.144588 C82.5587121,752.265751 81.9223485,752.434033 81.3125,752.649435 C80.8352273,752.837911 80.4441288,752.831179 80.1392045,752.629241 C79.8342803,752.427302 79.6818182,752.084006 79.6818182,751.599354 Z M79.6818182,747.156704 C79.6818182,746.914378 79.7679924,746.66532 79.9403409,746.409532 C80.1126894,746.153743 80.3049242,745.98546 80.5170455,745.904685 C81.2859848,745.635433 82.0549242,745.433495 82.8238636,745.298869 C83.592803,745.164243 84.4015152,745.096931 85.25,745.096931 C85.780303,745.096931 86.3039773,745.130587 86.8210227,745.1979 C87.3380682,745.265213 87.8484848,745.352719 88.3522727,745.46042 C88.5909091,745.51427 88.7964015,745.648896 88.96875,745.864297 C89.1410985,746.079698 89.2272727,746.322025 89.2272727,746.591276 C89.2272727,747.049004 89.0814394,747.385568 88.7897727,747.600969 C88.4981061,747.81637 88.1268939,747.870221 87.6761364,747.76252 C87.3049242,747.681745 86.9138258,747.621163 86.5028409,747.580775 C86.0918561,747.540388 85.6742424,747.520194 85.25,747.520194 C84.5606061,747.520194 83.8844697,747.587507 83.2215909,747.722132 C82.5587121,747.856758 81.9223485,748.031772 81.3125,748.247173 C80.8352273,748.435649 80.4441288,748.422186 80.1392045,748.206785 C79.8342803,747.991384 79.6818182,747.641357 79.6818182,747.156704 Z" id="Shape-Copy-3"></path>
        </g>
    </g>
</svg>