<?xml version="1.0" encoding="UTF-8"?>
<svg width="36px" height="48px" viewBox="0 0 36 48" version="1.1" xmlns="http://www.w3.org/2000/svg" xmlns:xlink="http://www.w3.org/1999/xlink">
    <!-- Generator: Sketch 53.2 (72643) - https://sketchapp.com -->
    <title>Shape Copy</title>
    <desc>Created with Sketch.</desc>
    <g id="Page-1" stroke="none" stroke-width="1" fill="none" fill-rule="evenodd">
        <g id="Main-Screen" transform="translate(-177.000000, -724.000000)" fill="#282D2F" fill-rule="nonzero">
            <path d="M195,754.315789 C192.836338,754.315789 190.997226,753.578947 189.482663,752.105263 C187.9681,750.631579 187.210818,748.842105 187.210818,746.736842 L187.210818,731.578947 C187.210818,729.473684 187.9681,727.684211 189.482663,726.210526 C190.997226,724.736842 192.836338,724 195,724 C197.163662,724 199.002774,724.736842 200.517337,726.210526 C202.0319,727.684211 202.789182,729.473684 202.789182,731.578947 L202.789182,746.736842 C202.789182,748.842105 202.0319,750.631579 200.517337,752.105263 C199.002774,753.578947 197.163662,754.315789 195,754.315789 Z M192.403606,769.473684 L192.403606,764.231579 C188.422469,763.684211 185.014702,762.042105 182.180305,759.305263 C179.345908,756.568421 177.625798,753.242105 177.019972,749.326316 C176.933426,748.610526 177.128155,748 177.604161,747.494737 C178.080166,746.989474 178.685992,746.736842 179.421637,746.736842 C180.157282,746.736842 180.773925,746.978947 181.271567,747.463158 C181.769209,747.947368 182.104577,748.547368 182.27767,749.263158 C182.883495,752.210526 184.38724,754.631579 186.788904,756.526316 C189.190569,758.421053 191.927601,759.368421 195,759.368421 C198.115673,759.368421 200.863523,758.410526 203.243551,756.494737 C205.623578,754.578947 207.116505,752.168421 207.72233,749.263158 C207.895423,748.547368 208.230791,747.947368 208.728433,747.463158 C209.226075,746.978947 209.842718,746.736842 210.578363,746.736842 C211.314008,746.736842 211.919834,746.989474 212.395839,747.494737 C212.871845,748 213.066574,748.610526 212.980028,749.326316 C212.374202,753.157895 210.66491,756.463158 207.85215,759.242105 C205.03939,762.021053 201.620804,763.684211 197.596394,764.231579 L197.596394,769.473684 C197.596394,770.189474 197.347573,770.789474 196.849931,771.273684 C196.352288,771.757895 195.735645,772 195,772 C194.264355,772 193.647712,771.757895 193.150069,771.273684 C192.652427,770.789474 192.403606,770.189474 192.403606,769.473684 Z M195,749.263158 C195.735645,749.263158 196.352288,749.021053 196.849931,748.536842 C197.347573,748.052632 197.596394,747.452632 197.596394,746.736842 L197.596394,731.578947 C197.596394,730.863158 197.347573,730.263158 196.849931,729.778947 C196.352288,729.294737 195.735645,729.052632 195,729.052632 C194.264355,729.052632 193.647712,729.294737 193.150069,729.778947 C192.652427,730.263158 192.403606,730.863158 192.403606,731.578947 L192.403606,746.736842 C192.403606,747.452632 192.652427,748.052632 193.150069,748.536842 C193.647712,749.021053 194.264355,749.263158 195,749.263158 Z" id="Shape-Copy"></path>
        </g>
    </g>
</svg>