<?xml version="1.0" encoding="UTF-8"?>
<svg width="28px" height="28px" viewBox="0 0 28 28" version="1.1" xmlns="http://www.w3.org/2000/svg" xmlns:xlink="http://www.w3.org/1999/xlink">
    <!-- Generator: Sketch 53.2 (72643) - https://sketchapp.com -->
    <title>Shape Copy 2</title>
    <desc>Created with Sketch.</desc>
    <g id="Page-1" stroke="none" stroke-width="1" fill="none" fill-rule="evenodd">
        <g id="Main-Screen" transform="translate(-301.000000, -734.000000)" fill="#282D2F" fill-rule="nonzero">
            <path d="M304.230769,758.769231 L306.423077,758.769231 L321.461538,743.730769 L319.269231,741.538462 L304.230769,756.576923 L304.230769,758.769231 Z M302.555556,762 C302.114815,762 301.74537,761.850926 301.447222,761.552778 C301.149074,761.25463 301,760.885185 301,760.444444 L301,756.672222 C301,756.257407 301.077778,755.862037 301.233333,755.486111 C301.388889,755.110185 301.609259,754.77963 301.894444,754.494444 L321.533333,734.894444 C321.844444,734.609259 322.187963,734.388889 322.563889,734.233333 C322.939815,734.077778 323.335185,734 323.75,734 C324.164815,734 324.566667,734.077778 324.955556,734.233333 C325.344444,734.388889 325.681481,734.622222 325.966667,734.933333 L328.105556,737.111111 C328.416667,737.396296 328.643519,737.733333 328.786111,738.122222 C328.928704,738.511111 329,738.9 329,739.288889 C329,739.703704 328.928704,740.099074 328.786111,740.475 C328.643519,740.850926 328.416667,741.194444 328.105556,741.505556 L308.505556,761.105556 C308.22037,761.390741 307.889815,761.611111 307.513889,761.766667 C307.137963,761.922222 306.742593,762 306.327778,762 L302.555556,762 Z M325.769231,739.384615 L323.615385,737.230769 L325.769231,739.384615 Z M320.365722,742.634278 L319.307692,741.538462 L321.461538,743.692308 L320.365722,742.634278 Z" id="Shape-Copy-2"></path>
        </g>
    </g>
</svg>